/* XPM */
static char * test_xpm[] = {
/* width height ncolors cpp [x_hot y_hot] */
"32 32 4 1 0 0",
/* colors */
" 	s none	m none	c none",
".	s iconColor1	m black	c black",
"X	s iconGray8	m black	c #212121212121",
"o	s iconGray7	m black	c #424242424242",
/* pixels */
" ... ... ...X... ... ... ...X...",
"................................",
"................................",
"................................",
" ... ... ...X... ... ... ...X...",
"................................",
"................................",
"................................",
" ... ... ...X... ... ... ...X...",
"................................",
"................................",
"................................",
"X...X...X...o...X...X...X...o...",
"................................",
"................................",
"................................",
" ... ... ...X... ... ... ...X...",
"................................",
"................................",
"................................",
" ... ... ...X... ... ... ...X...",
"................................",
"................................",
"................................",
" ... ... ...X... ... ... ...X...",
"................................",
"................................",
"................................",
"X...X...X...o...X...X...X...o...",
"................................",
"................................",
"................................"};
